<?xml version="1.0" encoding="UTF-8"?>
<svg id="c" data-name="Layer 1" xmlns="http://www.w3.org/2000/svg" viewBox="0 0 401.51 128.16">
  <defs>
    <style>
      .d {
        fill: #fff;
        stroke-width: 0px;
      }
    </style>
  </defs>
  <g>
    <path class="d" d="M57.4,94.75c-15.44,0-25.33-6.82-25.93-20.81,0-.34.34-.68.68-.68h9.55c.34,0,.68.34.77.68.68,7.68,4.43,12.54,15.18,12.54,8.27,0,13.56-2.64,13.56-9.3,0-14.75-38.55-3.5-38.55-26.86,0-11,8.7-17.65,22.94-17.65s22.86,5.63,24.39,18.17c.09.34-.26.68-.6.68h-9.55c-.34,0-.68-.26-.77-.68-.68-6.4-5.29-9.81-13.82-9.81-7.25,0-12.28,2.56-12.28,8.27,0,13.9,38.63,2.98,38.63,26.44,0,12.45-9.64,19.02-24.22,19.02Z"/>
    <path class="d" d="M117.29,93.56c-.34,0-.68-.34-.68-.68l.17-5.37c-2.98,4.35-7.59,6.91-13.47,6.91-12.2,0-18.59-9.89-18.59-22.69s6.99-22.94,18.76-22.94c5.8,0,10.32,2.22,13.3,6.48l-.26-4.95c0-.34.34-.68.68-.68h9.04c.34,0,.68.34.68.68l-.26,21.15.26,21.41c0,.34-.34.68-.68.68h-8.95ZM106.03,87.16c6.91,0,10.92-5.12,11-15.27.09-10.15-3.84-15.78-10.75-15.86-7.5-.09-11.17,5.63-11.17,15.01,0,10.23,3.75,16.12,10.92,16.12Z"/>
    <path class="d" d="M131.34,93.56c-.34,0-.68-.34-.68-.68l.26-19.96-.09-22.6c0-.34.34-.68.68-.68h8.61c.34,0,.68.34.68.68l-.26,5.71c2.81-4.09,7.85-7.42,14.41-7.42,9.13,0,15.01,6.14,15.01,17.23v9.04l.17,17.99c0,.34-.34.68-.68.68h-9.04c-.34,0-.68-.34-.68-.68l.17-17.99v-8.78c0-6.23-3.33-9.47-8.02-9.47-5.12,0-9.98,4.35-10.83,13.47v4.78l.17,17.99c0,.34-.34.68-.68.68h-9.21Z"/>
    <path class="d" d="M194.79,94.58c-13.65,0-21.49-8.95-21.49-22.86s7.85-23.11,21.66-23.11c11.09,0,18.08,6.31,19.02,15.78.09.34-.26.68-.6.68h-8.1c-.34,0-.68-.26-.77-.68-1.02-5.63-4.69-8.44-9.55-8.44-7.59,0-11.17,5.46-11.17,15.69s3.67,15.61,11.17,15.69c5.54.09,9.38-3.5,9.89-9.81.09-.43.43-.68.77-.68h8.36c.34,0,.68.34.6.68-.85,9.89-8.36,17.06-19.79,17.06Z"/>
    <path class="d" d="M238.97,56.55c-5.03,0-9.81,4.01-11.26,11.51l.26,24.82c0,.34-.34.68-.68.68h-8.87c-.34,0-.68-.34-.68-.68l.34-29.42-.34-28.91c0-.34.34-.68.68-.68h8.87c.34,0,.68.34.68.68l-.17,20.98c2.9-4.18,7.5-6.91,13.82-6.91,9.55,0,15.44,5.8,15.27,18.59v9.12l.17,16.54c0,.34-.34.68-.68.68h-9.13c-.34,0-.68-.34-.68-.68l.26-16.37-.09-10.4c0-6.65-3.41-9.55-7.76-9.55Z"/>
    <path class="d" d="M341.18,92.88c0,.34-.34.68-.68.68h-34.45c-.34,0-.68-.34-.68-.68v-6.31c0-.43.17-.94.43-1.19l21.66-28.06h-19.61c-.34,0-.68-.34-.68-.68v-6.31c0-.34.34-.68.68-.68h31.47c.34,0,.68.34.68.68v6.48c0,.43-.17.94-.43,1.19l-21.92,27.89h22.86c.34,0,.68.34.68.68v6.31Z"/>
    <path class="d" d="M303.16,72.52c.33-.11.77.12.79.47,1.48,8.54-3.37,17.48-14.75,21.15-13.69,4.42-23.98-2.36-28.16-15.31-4.34-13.44.62-24.88,13.48-29.03,13.19-4.26,23.49,2.25,28.42,16.68.11.33-.12.77-.45.87l-31.01,10.01c3.34,8.94,8.44,12.03,15.61,9.71,5.2-1.68,7.75-5.32,7.2-10.98-.05-.44.28-.82.61-.93l8.25-2.66ZM276.84,56.71c-5.94,1.92-8.31,6.69-7.17,13.88l20.62-6.66c-2.2-5.39-6.93-9.33-13.44-7.23Z"/>
  </g>
  <path class="d" d="M346.64,94.32c-.35,0-.69-.35-.69-.69v-6.36c0-.35.35-.69.69-.69h22.7c.35,0,.69.35.69.69v6.36c0,.35-.35.69-.69.69h-22.7Z"/>
</svg>