<?xml version="1.0" encoding="UTF-8"?>
<svg id="c" data-name="Layer 1" xmlns="http://www.w3.org/2000/svg" viewBox="0 0 120.91 128.16">
  <defs>
    <style>
      .d {
        fill: #fff;
        stroke-width: 0px;
      }
    </style>
  </defs>
  <path class="d" d="M80.54,100.4c-.36,0-.73-.36-.73-.73v-6.68c0-.36.36-.73.73-.73h23.86c.36,0,.73.36.73.73v6.68c0,.36-.36.73-.73.73h-23.86Z"/>
  <path class="d" d="M52.83,100.86c-16.22,0-26.62-7.17-27.25-21.87,0-.36.36-.72.72-.72h10.04c.36,0,.72.36.81.72.72,8.07,4.66,13.18,15.96,13.18,8.69,0,14.25-2.78,14.25-9.77,0-15.51-40.52-3.68-40.52-28.24,0-11.56,9.14-18.56,24.11-18.56s24.02,5.92,25.64,19.09c.09.36-.27.72-.63.72h-10.04c-.36,0-.72-.27-.81-.72-.72-6.72-5.56-10.31-14.52-10.31-7.62,0-12.91,2.69-12.91,8.7,0,14.61,40.61,3.14,40.61,27.79,0,13.09-10.13,19.99-25.46,19.99Z"/>
</svg>